<svg width="200" height="200" viewBox="0 0 200 200" fill="none" xmlns="http://www.w3.org/2000/svg">
<rect width="200" height="200" rx="100" fill="#2C7AE0"/>
<path d="M136.759 128.4C131.292 128.4 126.559 127.267 122.559 125C118.692 122.6 114.559 119.2 110.159 114.8C108.692 122.4 107.025 129 105.159 134.6C103.425 140.067 101.159 145.4 98.3586 150.6C95.6919 155.667 92.2919 159.6 88.1586 162.4C84.1586 165.067 79.4919 166.4 74.1586 166.4C67.3586 166.4 61.7586 164.533 57.3586 160.8C53.0919 156.933 50.9586 151.8 50.9586 145.4C50.9586 142.333 51.8919 139.267 53.7586 136.2C55.7586 133 58.3586 131.4 61.5586 131.4C63.6919 131.4 65.4919 132.2 66.9586 133.8C68.5586 135.4 69.3586 137.333 69.3586 139.6C69.3586 141.467 68.4919 143.133 66.7586 144.6C65.0253 146.067 63.2253 147 61.3586 147.4C61.3586 150.067 62.3586 152.467 64.3586 154.6C66.3586 156.733 69.0253 157.8 72.3586 157.8C76.6253 157.8 80.4253 156.467 83.7586 153.8C87.0919 151 89.8919 146.933 92.1586 141.6C94.4253 136.267 96.2253 131 97.5586 125.8C98.8919 120.6 100.292 114.2 101.759 106.6C95.6253 101.4 89.6919 98.8 83.9586 98.8C80.2253 98.8 76.8919 99.8 73.9586 101.8C71.0253 103.667 69.5586 106.2 69.5586 109.4C69.5586 112.6 70.9586 114.2 73.7586 114.2C74.8253 114.2 76.2253 113.6 77.9586 112.4C79.8253 111.067 80.9586 110.4 81.3586 110.4C82.5586 110.4 83.8919 111.333 85.3586 113.2C86.8253 114.933 87.5586 116.467 87.5586 117.8C87.5586 122.333 84.6253 124.6 78.7586 124.6C74.0919 124.6 69.9586 123.4 66.3586 121C62.7586 118.467 60.9586 114.733 60.9586 109.8C60.9586 103.8 63.0919 98.9333 67.3586 95.2C71.6253 91.4667 76.9586 89.6 83.3586 89.6C90.2919 89.6 96.9586 92.2 103.359 97.4C104.959 87.8 106.559 79.7333 108.159 73.2C103.225 71.4667 97.3586 69.0667 90.5586 66C83.8919 62.8 78.1586 60.2667 73.3586 58.4C68.6919 56.4 64.9586 55.4 62.1586 55.4C58.5586 55.4 55.6253 56.6 53.3586 59C51.0919 61.2667 49.9586 64.6667 49.9586 69.2C49.9586 74.1333 52.0253 76.6 56.1586 76.6C58.2919 76.6 60.2253 75.1333 61.9586 72.2C63.8253 69.1333 65.2919 67.6 66.3586 67.6C67.6919 67.6 69.0253 68.3333 70.3586 69.8C71.8253 71.2667 72.5586 72.6667 72.5586 74C72.5586 77.0667 71.0919 79.6667 68.1586 81.8C65.2253 83.9333 61.6919 85 57.5586 85C52.0919 85 47.8919 83.4667 44.9586 80.4C42.0253 77.3333 40.5586 73.2667 40.5586 68.2C40.5586 61.2667 42.4919 55.8667 46.3586 52C50.3586 48 55.4253 46 61.5586 46C66.6253 46 74.6919 48.8 85.7586 54.4C96.9586 60 105.159 63.5333 110.359 65C116.759 45.2667 126.092 35.4 138.359 35.4C144.492 35.4 149.159 36.8667 152.359 39.8C155.692 42.6 157.359 46.2 157.359 50.6C157.359 56.7333 154.625 62.6667 149.159 68.4C143.825 74 136.959 76.8 128.559 76.8C125.225 76.8 121.559 76.4667 117.559 75.8C116.759 79.4 115.692 84.8 114.359 92C113.159 99.0667 112.359 103.6 111.959 105.6C115.025 108.667 117.425 111 119.159 112.6C121.025 114.067 123.492 115.533 126.559 117C129.759 118.467 132.959 119.2 136.159 119.2C139.892 119.2 143.225 118.267 146.159 116.4C149.092 114.4 150.559 111.8 150.559 108.6C150.559 105.4 149.159 103.8 146.359 103.8C145.292 103.8 143.892 104.467 142.159 105.8C140.425 107 139.359 107.6 138.959 107.6C137.625 107.6 136.225 106.733 134.759 105C133.292 103.133 132.559 101.533 132.559 100.2C132.559 95.6667 135.492 93.4 141.359 93.4C146.025 93.4 150.159 94.6667 153.759 97.2C157.359 99.6 159.159 103.267 159.159 108.2C159.159 114.2 157.025 119.067 152.759 122.8C148.492 126.533 143.159 128.4 136.759 128.4ZM131.159 46.2C126.359 50.0667 122.559 57.1333 119.759 67.4C122.559 67.8 125.359 68 128.159 68C132.959 68 137.292 66.4 141.159 63.2C145.159 59.8667 147.159 55.4667 147.159 50C147.159 47.8667 146.425 46.1333 144.959 44.8C143.492 43.3333 141.692 42.6 139.559 42.6C136.759 42.6 133.959 43.8 131.159 46.2Z" fill="white"/>
</svg>
